<mxfile host="app.diagrams.net" modified="2023-03-13T15:41:53.503Z" agent="5.0 (Windows NT 10.0; Win64; x64) AppleWebKit/537.36 (KHTML, like Gecko) Chrome/110.0.0.0 Safari/537.36" etag="bc2B3-SEGl4fMuKEjL8x" version="21.0.6" type="github">
  <diagram name="Página-1" id="rIImALTACZuiPktH8rOV">
    <mxGraphModel dx="794" dy="740" grid="1" gridSize="10" guides="1" tooltips="1" connect="1" arrows="1" fold="1" page="1" pageScale="1" pageWidth="827" pageHeight="1169" math="0" shadow="0">
      <root>
        <mxCell id="0" />
        <mxCell id="1" parent="0" />
        <mxCell id="7cbt-E-KS1mcNuc8FLWm-6" value="" style="edgeStyle=orthogonalEdgeStyle;rounded=0;orthogonalLoop=1;jettySize=auto;html=1;" edge="1" parent="1" source="7cbt-E-KS1mcNuc8FLWm-2" target="7cbt-E-KS1mcNuc8FLWm-4">
          <mxGeometry relative="1" as="geometry" />
        </mxCell>
        <mxCell id="7cbt-E-KS1mcNuc8FLWm-2" value="inicio" style="rounded=1;whiteSpace=wrap;html=1;" vertex="1" parent="1">
          <mxGeometry x="320" y="100" width="120" height="60" as="geometry" />
        </mxCell>
        <mxCell id="7cbt-E-KS1mcNuc8FLWm-20" value="" style="edgeStyle=orthogonalEdgeStyle;rounded=0;orthogonalLoop=1;jettySize=auto;html=1;" edge="1" parent="1" source="7cbt-E-KS1mcNuc8FLWm-3" target="7cbt-E-KS1mcNuc8FLWm-14">
          <mxGeometry relative="1" as="geometry" />
        </mxCell>
        <mxCell id="7cbt-E-KS1mcNuc8FLWm-3" value="a=0 ,b=num, c=0.00001" style="rounded=0;whiteSpace=wrap;html=1;" vertex="1" parent="1">
          <mxGeometry x="290" y="270" width="180" height="60" as="geometry" />
        </mxCell>
        <mxCell id="7cbt-E-KS1mcNuc8FLWm-5" value="" style="edgeStyle=orthogonalEdgeStyle;rounded=0;orthogonalLoop=1;jettySize=auto;html=1;" edge="1" parent="1" source="7cbt-E-KS1mcNuc8FLWm-4" target="7cbt-E-KS1mcNuc8FLWm-3">
          <mxGeometry relative="1" as="geometry" />
        </mxCell>
        <mxCell id="7cbt-E-KS1mcNuc8FLWm-4" value="leer num" style="shape=parallelogram;perimeter=parallelogramPerimeter;whiteSpace=wrap;html=1;fixedSize=1;" vertex="1" parent="1">
          <mxGeometry x="320" y="190" width="120" height="60" as="geometry" />
        </mxCell>
        <mxCell id="7cbt-E-KS1mcNuc8FLWm-13" value="" style="edgeStyle=orthogonalEdgeStyle;rounded=0;orthogonalLoop=1;jettySize=auto;html=1;" edge="1" parent="1">
          <mxGeometry relative="1" as="geometry">
            <mxPoint x="380" y="430" as="sourcePoint" />
            <mxPoint x="380" y="450" as="targetPoint" />
          </mxGeometry>
        </mxCell>
        <mxCell id="7cbt-E-KS1mcNuc8FLWm-10" value="parar" style="ellipse;whiteSpace=wrap;html=1;" vertex="1" parent="1">
          <mxGeometry x="585" y="450" width="120" height="80" as="geometry" />
        </mxCell>
        <mxCell id="7cbt-E-KS1mcNuc8FLWm-33" style="edgeStyle=orthogonalEdgeStyle;rounded=0;orthogonalLoop=1;jettySize=auto;html=1;exitX=1;exitY=0.5;exitDx=0;exitDy=0;" edge="1" parent="1" source="7cbt-E-KS1mcNuc8FLWm-14" target="7cbt-E-KS1mcNuc8FLWm-32">
          <mxGeometry relative="1" as="geometry" />
        </mxCell>
        <mxCell id="7cbt-E-KS1mcNuc8FLWm-14" value="abs(promedio**2 - num) &amp;lt;= c" style="rhombus;whiteSpace=wrap;html=1;" vertex="1" parent="1">
          <mxGeometry x="270" y="350" width="220" height="80" as="geometry" />
        </mxCell>
        <mxCell id="7cbt-E-KS1mcNuc8FLWm-16" value="v" style="text;html=1;align=center;verticalAlign=middle;resizable=0;points=[];autosize=1;strokeColor=none;fillColor=none;" vertex="1" parent="1">
          <mxGeometry x="490" y="360" width="30" height="30" as="geometry" />
        </mxCell>
        <mxCell id="7cbt-E-KS1mcNuc8FLWm-23" value="" style="edgeStyle=orthogonalEdgeStyle;rounded=0;orthogonalLoop=1;jettySize=auto;html=1;" edge="1" parent="1" source="7cbt-E-KS1mcNuc8FLWm-21" target="7cbt-E-KS1mcNuc8FLWm-22">
          <mxGeometry relative="1" as="geometry" />
        </mxCell>
        <mxCell id="7cbt-E-KS1mcNuc8FLWm-25" value="" style="edgeStyle=orthogonalEdgeStyle;rounded=0;orthogonalLoop=1;jettySize=auto;html=1;" edge="1" parent="1" source="7cbt-E-KS1mcNuc8FLWm-21" target="7cbt-E-KS1mcNuc8FLWm-24">
          <mxGeometry relative="1" as="geometry" />
        </mxCell>
        <mxCell id="7cbt-E-KS1mcNuc8FLWm-21" value="promedio**2 &amp;lt; num:" style="rhombus;whiteSpace=wrap;html=1;" vertex="1" parent="1">
          <mxGeometry x="285" y="450" width="190" height="80" as="geometry" />
        </mxCell>
        <mxCell id="7cbt-E-KS1mcNuc8FLWm-30" style="edgeStyle=orthogonalEdgeStyle;rounded=0;orthogonalLoop=1;jettySize=auto;html=1;exitX=0;exitY=0.5;exitDx=0;exitDy=0;" edge="1" parent="1" source="7cbt-E-KS1mcNuc8FLWm-22">
          <mxGeometry relative="1" as="geometry">
            <mxPoint x="60" y="490" as="targetPoint" />
          </mxGeometry>
        </mxCell>
        <mxCell id="7cbt-E-KS1mcNuc8FLWm-22" value="&lt;div&gt;&amp;nbsp;a = promedio&lt;/div&gt;" style="rounded=0;whiteSpace=wrap;html=1;" vertex="1" parent="1">
          <mxGeometry x="100" y="460" width="120" height="60" as="geometry" />
        </mxCell>
        <mxCell id="7cbt-E-KS1mcNuc8FLWm-29" style="edgeStyle=orthogonalEdgeStyle;rounded=0;orthogonalLoop=1;jettySize=auto;html=1;entryX=0;entryY=0.5;entryDx=0;entryDy=0;" edge="1" parent="1" source="7cbt-E-KS1mcNuc8FLWm-24" target="7cbt-E-KS1mcNuc8FLWm-14">
          <mxGeometry relative="1" as="geometry">
            <Array as="points">
              <mxPoint x="60" y="590" />
              <mxPoint x="60" y="390" />
            </Array>
          </mxGeometry>
        </mxCell>
        <mxCell id="7cbt-E-KS1mcNuc8FLWm-24" value="&lt;div&gt;b = promedio&lt;/div&gt;" style="rounded=0;whiteSpace=wrap;html=1;" vertex="1" parent="1">
          <mxGeometry x="320" y="560" width="120" height="60" as="geometry" />
        </mxCell>
        <mxCell id="7cbt-E-KS1mcNuc8FLWm-26" value="v" style="text;html=1;align=center;verticalAlign=middle;resizable=0;points=[];autosize=1;strokeColor=none;fillColor=none;" vertex="1" parent="1">
          <mxGeometry x="240" y="450" width="30" height="30" as="geometry" />
        </mxCell>
        <mxCell id="7cbt-E-KS1mcNuc8FLWm-27" value="f" style="text;html=1;align=center;verticalAlign=middle;resizable=0;points=[];autosize=1;strokeColor=none;fillColor=none;" vertex="1" parent="1">
          <mxGeometry x="384" y="430" width="30" height="30" as="geometry" />
        </mxCell>
        <mxCell id="7cbt-E-KS1mcNuc8FLWm-28" value="f" style="text;html=1;align=center;verticalAlign=middle;resizable=0;points=[];autosize=1;strokeColor=none;fillColor=none;" vertex="1" parent="1">
          <mxGeometry x="384" y="530" width="30" height="30" as="geometry" />
        </mxCell>
        <mxCell id="7cbt-E-KS1mcNuc8FLWm-34" value="" style="edgeStyle=orthogonalEdgeStyle;rounded=0;orthogonalLoop=1;jettySize=auto;html=1;" edge="1" parent="1" source="7cbt-E-KS1mcNuc8FLWm-32" target="7cbt-E-KS1mcNuc8FLWm-10">
          <mxGeometry relative="1" as="geometry" />
        </mxCell>
        <mxCell id="7cbt-E-KS1mcNuc8FLWm-32" value="La raíz cuadrada de&quot;, num, &quot;es:&quot;, promedio" style="shape=parallelogram;perimeter=parallelogramPerimeter;whiteSpace=wrap;html=1;fixedSize=1;" vertex="1" parent="1">
          <mxGeometry x="530" y="360" width="230" height="60" as="geometry" />
        </mxCell>
      </root>
    </mxGraphModel>
  </diagram>
</mxfile>
